<svg width="40" height="40" viewBox="0 0 40 40" fill="none" xmlns="http://www.w3.org/2000/svg">
<path opacity="0.4" d="M36.2674 26.5334L25.6007 7.33337C24.1674 4.75004 22.184 3.33337 20.0007 3.33337C17.8174 3.33337 15.834 4.75004 14.4007 7.33337L3.73403 26.5334C2.38403 28.9834 2.23403 31.3334 3.31736 33.1834C4.4007 35.0334 6.53403 36.05 9.33403 36.05H30.6674C33.4674 36.05 35.6007 35.0334 36.684 33.1834C37.7674 31.3334 37.6174 28.9667 36.2674 26.5334Z" fill="#F22323"/>
<path d="M20 24.5833C19.3167 24.5833 18.75 24.0167 18.75 23.3333V15C18.75 14.3167 19.3167 13.75 20 13.75C20.6833 13.75 21.25 14.3167 21.25 15V23.3333C21.25 24.0167 20.6833 24.5833 20 24.5833Z" fill="#F22323"/>
<path d="M19.9999 30.0001C19.8999 30.0001 19.7833 29.9834 19.6666 29.9668C19.5666 29.9501 19.4666 29.9168 19.3666 29.8668C19.2666 29.8334 19.1666 29.7834 19.0666 29.7168C18.9833 29.6501 18.8999 29.5834 18.8166 29.5168C18.5166 29.2001 18.3333 28.7668 18.3333 28.3334C18.3333 27.9001 18.5166 27.4668 18.8166 27.1501C18.8999 27.0834 18.9833 27.0168 19.0666 26.9501C19.1666 26.8834 19.2666 26.8334 19.3666 26.8001C19.4666 26.7501 19.5666 26.7168 19.6666 26.7001C19.8833 26.6501 20.1166 26.6501 20.3166 26.7001C20.4333 26.7168 20.5333 26.7501 20.6333 26.8001C20.7333 26.8334 20.8333 26.8834 20.9333 26.9501C21.0166 27.0168 21.0999 27.0834 21.1833 27.1501C21.4833 27.4668 21.6666 27.9001 21.6666 28.3334C21.6666 28.7668 21.4833 29.2001 21.1833 29.5168C21.0999 29.5834 21.0166 29.6501 20.9333 29.7168C20.8333 29.7834 20.7333 29.8334 20.6333 29.8668C20.5333 29.9168 20.4333 29.9501 20.3166 29.9668C20.2166 29.9834 20.0999 30.0001 19.9999 30.0001Z" fill="#F22323"/>
</svg>
