<svg width="24" height="24" viewBox="0 0 24 24" fill="none" xmlns="http://www.w3.org/2000/svg">
<path opacity="0.4" d="M20.0422 6.82165L14.2822 2.79165C12.7122 1.69165 10.3022 1.75165 8.79219 2.92165L3.78219 6.83165C2.78219 7.61165 1.99219 9.21165 1.99219 10.4716V17.3716C1.99219 19.9216 4.06219 22.0016 6.61219 22.0016H17.3922C19.9422 22.0016 22.0122 19.9316 22.0122 17.3816V10.6016C22.0122 9.25165 21.1422 7.59165 20.0422 6.82165Z" fill="white"/>
<path d="M12 18.75C11.59 18.75 11.25 18.41 11.25 18V15C11.25 14.59 11.59 14.25 12 14.25C12.41 14.25 12.75 14.59 12.75 15V18C12.75 18.41 12.41 18.75 12 18.75Z" fill="white"/>
</svg>
