<svg width="40" height="40" viewBox="0 0 40 40" fill="none"
    xmlns="http://www.w3.org/2000/svg">
    <rect width="40" height="40" fill="white" />
    <path fill-rule="evenodd" clip-rule="evenodd" d="M19.9996 10.5626C17.8511 10.5626 16.1221 12.3 16.1221 14.4401C16.1221 16.527 17.7558 18.221 19.8171 18.3068C19.9342 18.2981 20.0585 18.2977 20.1736 18.3067C22.2334 18.2202 23.8678 16.527 23.8771 14.4389C23.8764 12.3001 22.1385 10.5626 19.9996 10.5626ZM14.9971 14.4401C14.9971 11.6803 17.2281 9.43762 19.9996 9.43762C22.7602 9.43762 25.0021 11.6795 25.0021 14.4401L25.0021 14.4425C24.9908 17.1428 22.8628 19.3421 20.1785 19.4323C20.1535 19.4331 20.1285 19.4323 20.1036 19.4298C20.0424 19.4237 19.9584 19.4232 19.8805 19.4303C19.8573 19.4324 19.834 19.4331 19.8107 19.4323C17.1268 19.3421 14.9971 17.1427 14.9971 14.4401Z" fill="#9E9E9E" />
    <path fill-rule="evenodd" clip-rule="evenodd" d="M20.1722 20.625C22.0721 20.625 24 21.1023 25.4821 22.0922C26.809 22.9753 27.5472 24.1967 27.5472 25.4913C27.5472 26.7857 26.8091 28.0094 25.4826 28.8974L25.4825 28.8975C23.9956 29.8924 22.0653 30.3725 20.1647 30.3725C18.2644 30.3725 16.3343 29.8925 14.8475 28.8979C13.5205 28.0148 12.7822 26.7933 12.7822 25.4988C12.7822 24.2043 13.5203 22.9806 14.8468 22.0926L14.8489 22.0912L14.8489 22.0912C16.3402 21.1024 18.2721 20.625 20.1722 20.625ZM15.4716 23.0281C14.3789 23.76 13.9072 24.6659 13.9072 25.4988C13.9072 26.3315 14.3787 27.2348 15.4713 27.9617L15.4725 27.9625C16.7356 28.8076 18.4353 29.2475 20.1647 29.2475C21.8941 29.2475 23.5937 28.8076 24.8568 27.9626C25.9503 27.2306 26.4222 26.3243 26.4222 25.4913C26.4222 24.6585 25.9507 23.7552 24.8582 23.0283L24.8573 23.0278C23.5995 22.1877 21.9023 21.75 20.1722 21.75C18.4428 21.75 16.7402 22.1874 15.4716 23.0281Z" fill="#9E9E9E" />
</svg>