<svg width="40" height="40" viewBox="0 0 40 40" fill="none" xmlns="http://www.w3.org/2000/svg">
<path d="M31.248 13.334V16.834C30.5147 16.734 29.6814 16.684 28.748 16.6673V13.334C28.748 8.08398 27.2647 4.58398 19.998 4.58398C12.7314 4.58398 11.248 8.08398 11.248 13.334V16.6673C10.3147 16.684 9.48138 16.734 8.74805 16.834V13.334C8.74805 8.50065 9.91471 2.08398 19.998 2.08398C30.0814 2.08398 31.248 8.50065 31.248 13.334Z" fill="#298432"/>
<path opacity="0.4" d="M36.6644 24.9993V28.3327C36.6644 34.9993 34.9977 36.666 28.3311 36.666H11.6644C4.99772 36.666 3.33105 34.9993 3.33105 28.3327V24.9993C3.33105 19.4327 4.49772 17.3494 8.74772 16.8327C9.48105 16.7327 10.3144 16.6827 11.2477 16.666H28.7477C29.6811 16.6827 30.5144 16.7327 31.2477 16.8327C35.4977 17.3494 36.6644 19.4327 36.6644 24.9993Z" fill="#298432"/>
<path d="M13.3317 28.3334C13.115 28.3334 12.8984 28.2834 12.6984 28.2001C12.4817 28.1168 12.3151 28.0001 12.1484 27.8501C11.8484 27.5334 11.665 27.1001 11.665 26.6668C11.665 26.4501 11.715 26.2334 11.7984 26.0334C11.8817 25.8334 11.9984 25.6501 12.1484 25.4834C12.3151 25.3334 12.4817 25.2168 12.6984 25.1334C13.315 24.8668 14.0484 25.0168 14.515 25.4834C14.665 25.6501 14.7817 25.8334 14.8651 26.0334C14.9484 26.2334 14.9984 26.4501 14.9984 26.6668C14.9984 27.1001 14.815 27.5334 14.515 27.8501C14.1984 28.1501 13.765 28.3334 13.3317 28.3334Z" fill="#298432"/>
<path d="M19.9987 28.332C19.5487 28.332 19.132 28.1487 18.8154 27.8487C18.6654 27.6821 18.5487 27.4987 18.4653 27.2987C18.382 27.0987 18.332 26.882 18.332 26.6654C18.332 26.2154 18.5154 25.7987 18.8154 25.482C19.432 24.8654 20.5487 24.8654 21.182 25.482C21.482 25.7987 21.6654 26.2154 21.6654 26.6654C21.6654 26.882 21.6154 27.0987 21.5321 27.2987C21.4487 27.4987 21.332 27.6821 21.182 27.8487C20.8654 28.1487 20.432 28.332 19.9987 28.332Z" fill="#298432"/>
<path d="M26.6637 28.332C26.2304 28.332 25.7971 28.1487 25.4804 27.8487C25.1804 27.5321 24.9971 27.1154 24.9971 26.6654C24.9971 26.2154 25.1804 25.7987 25.4804 25.482C26.1138 24.8654 27.2304 24.8654 27.8471 25.482C27.9137 25.5654 27.9804 25.6487 28.047 25.7487C28.1137 25.832 28.1638 25.932 28.1971 26.032C28.2471 26.132 28.2804 26.232 28.2971 26.332C28.3138 26.4487 28.3304 26.5654 28.3304 26.6654C28.3304 27.0987 28.1471 27.5321 27.8471 27.8487C27.5304 28.1487 27.0971 28.332 26.6637 28.332Z" fill="#298432"/>
</svg>
