<svg width="24" height="24" viewBox="0 0 24 24"
    xmlns="http://www.w3.org/2000/svg">
    <path opacity="0.4" d="M9.29476 12.9297C9.99226 13.7097 10.6823 14.4709 11.3573 15.2059C9.33976 17.4859 6.40726 20.7559 5.46226 21.5434C3.60226 23.0884 1.23976 20.9959 2.84476 18.9259C3.51226 18.0634 5.88976 15.8584 9.29476 12.9297Z" />
    <path opacity="0.4" d="M22.2056 7.42104L22.2019 7.42479C22.1852 7.44893 22.1663 7.47152 22.1456 7.49229C17.8969 11.7373 17.9569 11.8273 17.0456 12.0823C15.7969 12.431 15.2794 11.7973 14.5219 12.071C13.7906 11.4035 13.0331 10.7173 12.2606 10.0273C12.6581 9.20229 11.9419 8.68854 12.2981 7.37979C12.5606 6.46479 12.6431 6.52854 16.9144 2.26104C16.9965 2.16096 17.0986 2.07917 17.2142 2.02095C17.3298 1.96273 17.4564 1.92936 17.5857 1.923C17.715 1.91663 17.8442 1.93741 17.9649 1.98399C18.0857 2.03057 18.1954 2.10193 18.2869 2.19346C18.3785 2.285 18.4498 2.39469 18.4964 2.51546C18.543 2.63624 18.5638 2.76544 18.5574 2.89473C18.551 3.02402 18.5177 3.15055 18.4595 3.26617C18.4012 3.38179 18.3194 3.48394 18.2194 3.56604L15.6019 6.18729C15.5556 6.22933 15.5183 6.28033 15.4923 6.3372C15.4663 6.39407 15.4521 6.45563 15.4506 6.51815C15.4491 6.58067 15.4603 6.64285 15.4835 6.70091C15.5067 6.75897 15.5415 6.81171 15.5857 6.85593C15.6299 6.90015 15.6827 6.93493 15.7407 6.95816C15.7988 6.98139 15.861 6.9926 15.9235 6.99109C15.986 6.98958 16.0476 6.97539 16.1045 6.94938C16.1613 6.92338 16.2123 6.88609 16.2544 6.83979L18.8756 4.22229C18.9578 4.12219 19.0599 4.04037 19.1756 3.98211C19.2912 3.92384 19.4178 3.8904 19.5471 3.88395C19.6764 3.8775 19.8057 3.89818 19.9265 3.94465C20.0474 3.99112 20.1572 4.06236 20.2489 4.1538C20.3406 4.24523 20.4122 4.35483 20.459 4.47556C20.5058 4.5963 20.5268 4.72549 20.5208 4.85484C20.5147 4.98419 20.4816 5.11083 20.4237 5.22664C20.3657 5.34245 20.2842 5.44486 20.1844 5.52729L17.5631 8.14854C17.5168 8.19058 17.4795 8.24157 17.4535 8.29845C17.4275 8.35532 17.4133 8.41688 17.4118 8.4794C17.4103 8.54192 17.4215 8.60409 17.4447 8.66216C17.468 8.72022 17.5028 8.77296 17.547 8.81718C17.5912 8.8614 17.6439 8.89618 17.702 8.91941C17.7601 8.94264 17.8222 8.95385 17.8847 8.95234C17.9473 8.95083 18.0088 8.93664 18.0657 8.91063C18.1226 8.88463 18.1736 8.84734 18.2156 8.80104L20.8369 6.18354C20.916 6.08626 21.0141 6.0061 21.1252 5.94794C21.2363 5.88979 21.358 5.85486 21.483 5.84528C21.6081 5.8357 21.7337 5.85167 21.8524 5.89222C21.9711 5.93277 22.0802 5.99705 22.1732 6.08114C22.2662 6.16524 22.3412 6.26739 22.3934 6.38137C22.4457 6.49535 22.4742 6.61878 22.4772 6.74414C22.4803 6.86949 22.4578 6.99415 22.4111 7.11053C22.3644 7.2269 22.2945 7.33255 22.2056 7.42104Z" />
    <path d="M20.7056 21.4087C20.3543 21.743 19.885 21.9248 19.4002 21.9142C18.9154 21.9037 18.4544 21.7017 18.1181 21.3524C13.7682 16.8187 9.58306 12.1312 9.58306 12.1312C9.38224 11.9039 9.13031 11.7276 8.848 11.6168C8.5657 11.5059 8.26111 11.4637 7.95931 11.4937C6.50806 11.6324 4.78306 10.9725 3.42181 9.61118C1.35556 7.54118 0.905558 4.63868 2.42056 3.12368C3.93556 1.60868 6.84181 2.05868 8.90806 4.12493C10.2693 5.48618 10.9293 7.21118 10.7906 8.66243C10.7618 8.96414 10.8046 9.26836 10.9153 9.55047C11.0261 9.83257 11.2017 10.0846 11.4281 10.2862C14.232 12.7783 18.282 16.5455 20.6493 18.8212C20.8232 18.9872 20.9626 19.1859 21.0595 19.4059C21.1564 19.6259 21.209 19.8629 21.2143 20.1033C21.2195 20.3436 21.1772 20.5826 21.09 20.8067C21.0027 21.0307 20.872 21.2352 20.7056 21.4087Z" />
</svg>