<svg width="24" height="24" viewBox="0 0 24 24"
    xmlns="http://www.w3.org/2000/svg">
    <path opacity="0.4" d="M19.7926 4.22031C16.8326 1.27031 12.0326 1.27031 9.09259 4.22031C7.02259 6.27031 6.40259 9.22031 7.20259 11.8203L2.50259 16.5203C2.17259 16.8603 1.94259 17.5303 2.01259 18.0103L2.31259 20.1903C2.42259 20.9103 3.09259 21.5903 3.81259 21.6903L5.99259 21.9903C6.47259 22.0603 7.14259 21.8403 7.48259 21.4903L8.30259 20.6703C8.50259 20.4803 8.50259 20.1603 8.30259 19.9603L6.36259 18.0203C6.07259 17.7303 6.07259 17.2503 6.36259 16.9603C6.65259 16.6703 7.13259 16.6703 7.42259 16.9603L9.37259 18.9103C9.56259 19.1003 9.88259 19.1003 10.0726 18.9103L12.1926 16.8003C14.7826 17.6103 17.7326 16.9803 19.7926 14.9303C22.7426 11.9803 22.7426 7.17031 19.7926 4.22031ZM14.5026 12.0003C13.1226 12.0003 12.0026 10.8803 12.0026 9.50031C12.0026 8.12031 13.1226 7.00031 14.5026 7.00031C15.8826 7.00031 17.0026 8.12031 17.0026 9.50031C17.0026 10.8803 15.8826 12.0003 14.5026 12.0003Z" />
    <path d="M14.5 12C15.8807 12 17 10.8807 17 9.5C17 8.11929 15.8807 7 14.5 7C13.1193 7 12 8.11929 12 9.5C12 10.8807 13.1193 12 14.5 12Z" />
</svg>